<?xml version="1.0" standalone="no"?>
<!DOCTYPE svg PUBLIC "-//W3C//DTD SVG 20010904//EN"
 "http://www.w3.org/TR/2001/REC-SVG-20010904/DTD/svg10.dtd">
<svg version="1.0" xmlns="http://www.w3.org/2000/svg"
 width="434.000000pt" height="526.000000pt" viewBox="0 0 434.000000 526.000000"
 preserveAspectRatio="xMidYMid meet">

<g transform="translate(0.000000,526.000000) scale(0.100000,-0.100000)"
fill="#000000" stroke="none">
<path d="M3844 4961 c3 -164 11 -800 18 -1412 6 -613 12 -1211 13 -1329 2
-118 4 -666 4 -1217 l1 -1003 109 0 108 0 7 71 c3 39 4 74 2 77 -9 15 -16 616
-7 607 5 -6 19 -77 30 -160 11 -82 30 -177 41 -210 19 -55 20 -73 14 -223 l-7
-162 82 0 81 0 0 160 c0 100 -4 160 -10 160 -5 0 -10 9 -10 19 0 11 -9 23 -21
26 -37 12 -81 115 -49 115 16 0 12 14 -10 37 -11 12 -15 23 -10 25 11 4 -15
129 -34 169 -9 17 -10 32 -4 43 7 12 1 29 -22 64 -26 39 -30 53 -25 82 4 19
13 42 21 51 8 8 14 21 14 28 0 17 102 63 111 49 8 -13 25 40 35 104 8 58 -4
62 -31 10 -23 -44 -39 -62 -55 -62 -14 0 -31 46 -29 84 1 38 -27 127 -34 106
-14 -45 -31 -110 -38 -150 -5 -25 -12 -65 -16 -89 -4 -24 -14 -46 -20 -49 -10
-3 -13 21 -13 95 0 54 -3 136 -5 183 -6 98 -14 1798 -15 3108 l0 892 -116 0
-117 0 7 -299z"/>
<path d="M2005 4453 c-92 -6 -179 -24 -232 -49 -30 -13 -59 -24 -66 -24 -7 0
-25 -9 -42 -20 -16 -11 -38 -20 -47 -20 -10 0 -32 -12 -50 -28 -18 -15 -59
-44 -90 -65 -31 -21 -63 -49 -72 -61 -8 -13 -40 -47 -70 -76 -95 -91 -152
-204 -172 -345 -16 -108 -21 -383 -9 -453 l7 -44 22 21 c26 25 65 27 127 7 24
-8 55 -17 69 -20 17 -4 34 -22 53 -55 32 -57 33 -64 10 -86 -16 -16 -16 -18 0
-27 21 -11 22 -51 2 -68 -9 -8 -13 -21 -9 -32 4 -14 0 -21 -15 -25 -16 -4 -19
-9 -11 -22 7 -12 2 -22 -19 -41 -24 -21 -28 -31 -24 -57 3 -19 11 -33 19 -33
12 0 31 -8 63 -27 12 -8 -35 -42 -65 -47 -28 -6 -39 -2 -61 19 -15 14 -33 25
-40 25 -6 0 -13 6 -16 13 -2 6 -8 8 -13 4 -4 -4 5 -44 20 -89 16 -44 33 -97
37 -117 23 -107 27 -109 28 -20 2 140 15 173 55 134 17 -17 36 -20 36 -4 0 5
5 7 11 3 6 -3 8 -17 5 -29 -3 -13 -1 -27 5 -31 6 -4 8 -20 4 -40 -4 -26 0 -44
20 -77 18 -31 25 -58 25 -94 0 -46 4 -54 35 -82 35 -30 44 -54 25 -66 -17 -10
1 -33 23 -29 12 2 17 2 10 -2 -8 -3 -10 -22 -6 -57 4 -39 11 -58 32 -77 36
-33 91 -105 91 -119 0 -9 27 -16 52 -13 3 1 12 -5 18 -13 7 -8 26 -15 42 -15
16 0 31 -6 34 -15 4 -8 35 -31 69 -51 43 -23 65 -42 67 -56 2 -14 13 -24 30
-29 33 -9 58 -32 58 -53 0 -21 20 -20 35 1 11 15 19 16 55 6 34 -9 51 -8 86 4
23 8 48 21 55 29 17 21 51 17 89 -11 37 -27 66 -31 104 -14 19 9 25 19 23 40
-1 20 -7 29 -19 29 -10 0 -18 5 -18 10 0 13 46 13 70 0 24 -13 44 -57 126
-283 37 -104 61 -184 56 -189 -10 -10 -130 26 -239 71 -39 16 -101 53 -139 85
-38 30 -75 56 -81 56 -9 0 -13 -22 -13 -79 0 -63 -3 -80 -16 -85 -59 -23 -324
10 -432 53 -26 11 -103 42 -172 70 -121 49 -150 58 -150 45 0 -4 21 -36 47
-73 98 -136 246 -369 303 -476 96 -178 181 -369 200 -445 6 -25 18 -66 26 -92
14 -43 19 -48 44 -48 21 0 37 -10 57 -35 20 -25 36 -35 55 -35 22 0 32 -8 47
-39 11 -21 27 -41 36 -44 19 -8 20 -36 0 -43 -8 -4 -15 -14 -15 -23 0 -9 -11
-24 -24 -34 -14 -11 -22 -25 -19 -35 3 -12 -19 -40 -65 -85 -39 -37 -74 -67
-79 -67 -4 0 -14 -9 -21 -21 l-13 -20 235 3 235 3 39 38 c26 25 44 36 55 31
20 -7 21 -16 5 -32 -9 -9 -9 -12 3 -12 9 0 24 18 34 40 10 21 22 38 28 37 5
-1 12 4 14 11 3 6 0 12 -7 12 -6 0 -8 5 -5 10 3 6 1 10 -4 10 -16 0 -13 21 6
42 9 10 18 32 20 48 5 50 40 106 90 146 94 73 108 111 53 142 -16 9 -30 22
-30 28 0 6 -7 17 -15 24 -18 15 -19 64 -2 103 14 33 133 154 158 162 10 4 33
28 50 56 18 27 36 49 41 49 4 0 29 28 54 62 25 35 54 67 65 72 10 5 19 15 19
23 0 52 -112 -6 -186 -97 -29 -36 -71 -83 -94 -105 -24 -22 -47 -52 -52 -67
-5 -14 -22 -31 -39 -38 -16 -7 -26 -17 -22 -23 3 -5 1 -7 -5 -3 -6 3 -27 -3
-46 -15 -46 -27 -62 -20 -69 26 -10 64 3 85 148 225 31 30 72 79 91 107 18 29
43 58 54 65 11 7 20 21 20 30 0 10 7 18 16 18 10 0 14 6 11 14 -3 7 -1 18 5
24 19 19 0 32 -31 21 -31 -11 -164 -141 -213 -209 -18 -25 -37 -50 -43 -56
-11 -12 -50 -34 -59 -34 -12 0 -5 28 9 40 8 7 15 22 15 34 0 12 9 39 20 61 11
22 20 46 20 55 0 9 14 29 31 46 28 26 30 34 26 76 -3 34 0 50 12 60 21 18 110
38 168 38 42 0 45 2 39 23 -3 12 -29 136 -58 275 -48 235 -54 255 -76 263 -58
22 -177 1 -261 -48 -38 -22 -45 -23 -58 -11 -12 13 -11 19 13 48 31 36 134 90
174 90 32 0 52 13 48 31 -2 10 6 14 27 14 23 0 31 -5 33 -21 3 -24 38 -61 48
-51 4 3 8 55 11 114 3 78 1 114 -9 129 -61 99 -66 117 -53 215 2 18 -1 41 -6
51 -7 14 -7 18 3 16 10 -2 12 11 10 53 -3 40 1 64 12 81 15 23 15 27 0 56 -21
43 -38 40 -53 -9 -7 -22 -17 -39 -23 -37 -6 2 -19 27 -28 56 -9 28 -34 70 -54
92 -56 62 -97 131 -90 152 4 14 0 18 -16 18 -15 0 -20 -5 -17 -14 3 -8 -8 -23
-25 -36 l-30 -22 -25 23 c-13 13 -38 24 -54 25 -16 1 -38 9 -48 18 -10 9 -25
16 -34 16 -9 0 -19 11 -23 25 -8 31 24 78 65 95 28 11 40 27 47 58 1 7 9 23
17 35 26 41 28 71 7 87 -16 12 -18 22 -14 52 6 33 11 39 42 48 37 10 62 0 62
-24 0 -6 7 -24 15 -40 8 -15 21 -51 29 -80 29 -102 64 -179 95 -212 37 -37
106 -74 139 -74 24 0 40 18 20 24 -7 2 -32 9 -55 15 -50 14 -110 72 -105 102
2 11 -2 26 -8 34 -16 19 -3 40 15 25 27 -23 85 -48 90 -39 3 4 12 6 19 3 10
-4 15 13 20 63 3 37 8 77 10 88 5 28 -3 38 -20 24 -23 -19 -45 -3 -38 26 7 29
-13 35 -23 8 -9 -24 -25 -34 -45 -27 -10 3 -18 1 -18 -3 0 -15 23 -33 43 -33
10 0 15 -4 12 -10 -9 -15 -37 -12 -75 9 -20 11 -34 25 -32 34 1 9 -2 18 -8 22
-16 10 -12 32 7 40 12 4 24 -1 35 -15 l17 -21 7 28 c4 15 16 38 27 50 17 19
30 22 94 22 41 0 76 1 78 3 10 10 -17 97 -47 146 -45 74 -56 116 -67 253 -8
98 -15 125 -44 189 -30 64 -50 90 -137 172 -61 59 -120 106 -148 118 -26 12
-56 29 -67 40 -24 22 -104 46 -205 59 -41 6 -91 15 -110 21 -19 5 -44 9 -55 8
-11 -1 -42 -3 -70 -5z m261 -272 c5 -5 47 -16 94 -25 47 -9 89 -21 94 -26 6
-6 24 -10 41 -10 46 -1 96 -22 167 -70 74 -51 77 -54 105 -100 25 -42 40 -94
57 -203 17 -104 9 -114 -99 -131 -64 -9 -79 -15 -86 -32 -4 -12 -14 -24 -23
-27 -9 -4 -18 -25 -22 -57 -7 -53 -4 -50 -76 -65 -29 -5 -90 96 -68 110 13 8
1 56 -19 76 -9 10 -45 32 -80 50 -51 26 -81 34 -151 39 -48 4 -97 13 -109 19
-18 10 -30 9 -66 -9 -24 -11 -46 -27 -49 -35 -3 -8 -12 -15 -21 -15 -18 0
-101 -63 -132 -100 -11 -14 -23 -35 -27 -47 -6 -20 -4 -23 17 -23 15 0 28 9
37 25 9 17 22 25 40 25 15 0 49 11 76 25 53 27 74 31 74 14 0 -6 23 -8 67 -4
62 6 65 5 52 -11 -13 -16 -10 -17 36 -11 28 4 52 12 53 17 5 14 29 13 38 -2 5
-7 3 -8 -6 -3 -8 5 -11 3 -9 -4 5 -13 94 -50 142 -58 20 -4 27 -11 27 -28 0
-12 10 -46 22 -75 19 -46 20 -56 9 -84 -7 -17 -20 -49 -28 -72 -31 -87 -114
-153 -193 -154 -52 0 -129 41 -177 93 -24 26 -43 44 -43 41 0 -14 32 -62 57
-85 54 -51 91 -64 186 -64 l87 0 0 -47 c0 -37 5 -50 22 -62 20 -14 37 -53 18
-41 -4 3 -11 -2 -14 -10 -3 -9 -36 -29 -73 -46 -38 -16 -75 -33 -83 -37 -19
-10 -70 -109 -70 -137 0 -12 9 -30 20 -40 18 -16 20 -16 46 4 33 26 48 26 65
1 8 -10 36 -30 64 -44 45 -22 51 -23 77 -10 27 14 30 34 5 34 -16 1 -57 36
-57 49 0 6 12 14 28 17 15 4 32 11 39 16 23 18 121 9 151 -15 6 -5 12 -20 12
-33 0 -18 6 -24 22 -24 40 0 88 -23 88 -42 0 -10 7 -18 15 -18 25 0 36 -45 22
-87 -12 -37 -13 -37 -70 -39 -63 -2 -79 7 -42 24 23 11 27 25 12 50 -5 6 -27
12 -50 12 -23 0 -58 4 -77 8 -19 4 -66 5 -105 2 l-70 -5 40 -40 c38 -39 102
-75 133 -75 23 0 -69 -98 -93 -99 -12 -1 -27 -7 -34 -13 -10 -11 -15 -9 -27 6
-12 17 -17 18 -39 6 -22 -12 -28 -11 -49 9 -13 12 -27 21 -32 20 -24 -6 -64
15 -64 32 0 15 -7 19 -32 19 -18 0 -37 4 -43 8 -19 13 -36 53 -28 65 10 17 5
55 -15 99 -13 29 -23 38 -43 38 -14 0 -34 6 -44 14 -19 14 -19 15 -2 33 24 27
21 41 -7 36 -18 -4 -33 3 -55 26 -17 17 -35 31 -41 31 -5 0 -10 7 -10 16 0 11
-8 15 -28 13 -23 -3 -38 7 -85 58 -61 67 -89 120 -80 152 5 19 -8 27 -39 22
-17 -2 -53 68 -63 123 -12 66 -1 206 17 217 17 11 179 29 255 29 71 0 72 0 93
-35 21 -34 33 -40 77 -36 14 1 24 -6 28 -19 5 -16 15 -20 50 -20 26 0 45 5 47
12 4 10 14 8 41 -6 30 -17 38 -18 51 -7 21 18 22 85 1 77 -32 -12 -116 -18
-160 -12 -58 9 -59 36 -3 50 30 8 41 6 56 -7 24 -22 40 -21 77 3 25 17 31 17
45 5 9 -8 25 -12 38 -8 l22 5 -25 24 c-29 26 -51 31 -57 12 -4 -10 -10 -10
-31 -1 -15 7 -40 10 -57 8 -16 -3 -44 -7 -60 -10 -18 -3 -29 -1 -25 4 9 15
-32 23 -55 11 -17 -9 -24 -8 -38 9 -16 20 -19 20 -57 6 -22 -8 -54 -14 -72
-15 -17 0 -62 -6 -100 -14 -37 -8 -88 -16 -113 -18 l-45 -3 2 57 c2 54 37 158
53 158 11 0 50 81 50 103 0 9 4 18 9 21 9 6 20 86 27 190 4 68 8 75 34 59 15
-10 23 -9 42 6 33 25 74 40 143 51 38 6 75 20 100 38 23 16 67 34 100 40 32 7
68 19 79 27 25 16 38 18 52 6z m392 -759 c3 -9 -3 -13 -19 -10 -12 1 -24 9
-27 16 -3 9 3 13 19 10 12 -1 24 -9 27 -16z m5 -600 c15 -14 27 -32 27 -39 0
-15 -46 -18 -55 -3 -3 6 -22 10 -41 10 -24 0 -33 4 -28 12 5 7 3 8 -5 3 -7 -4
-34 -8 -60 -10 -25 -1 -64 -5 -86 -9 l-40 -7 27 22 c74 60 207 71 261 21z
m217 -521 c0 -3 -33 -6 -72 -6 -40 0 -95 -3 -123 -8 -41 -6 -47 -5 -30 5 34
21 225 29 225 9z m16 -658 c-10 -10 -19 5 -10 18 6 11 8 11 12 0 2 -7 1 -15
-2 -18z m68 -81 c7 -4 -12 -22 -24 -22 -14 0 -32 19 -26 28 6 10 25 8 50 -6z
m-584 -132 c0 -11 9 -43 19 -72 25 -70 57 -219 72 -344 14 -109 7 -150 -44
-264 l-20 -45 -8 45 c-4 25 -6 135 -3 245 4 157 1 218 -11 285 -25 131 -30
184 -16 176 6 -4 11 -16 11 -26z"/>
<path d="M2070 3539 c0 -5 5 -7 10 -4 6 3 10 8 10 11 0 2 -4 4 -10 4 -5 0 -10
-5 -10 -11z"/>
<path d="M2021 3264 c0 -11 3 -14 6 -6 3 7 2 16 -1 19 -3 4 -6 -2 -5 -13z"/>
<path d="M3140 3260 c0 -15 5 -20 18 -18 9 2 17 10 17 18 0 8 -8 16 -17 18
-13 2 -18 -3 -18 -18z"/>
<path d="M1180 3236 c0 -8 -5 -16 -11 -18 -7 -2 -11 -23 -10 -48 1 -25 2 -61
3 -80 0 -19 3 -27 5 -17 3 9 8 17 11 17 4 0 8 36 10 80 1 44 0 80 -3 80 -3 0
-5 -6 -5 -14z"/>
<path d="M1210 3115 c-7 -25 -16 -45 -20 -45 -4 0 -7 -13 -6 -29 1 -16 4 -27
9 -24 4 2 8 -6 9 -19 1 -13 3 -32 4 -43 1 -11 2 -26 3 -33 1 -7 6 -10 13 -6 7
4 8 3 4 -4 -11 -18 12 -51 34 -49 16 1 17 4 6 17 -30 36 -41 86 -38 183 1 53
0 97 -2 97 -2 0 -9 -20 -16 -45z"/>
<path d="M1390 3088 c0 -12 3 -17 8 -12 4 5 11 12 15 15 5 3 2 9 -7 12 -12 5
-16 0 -16 -15z"/>
<path d="M2437 3052 c-25 -28 -21 -32 32 -32 41 0 51 -4 56 -20 7 -23 18 -25
47 -9 20 11 19 12 -13 45 -39 40 -94 47 -122 16z"/>
<path d="M1346 2485 c-8 -31 2 -54 15 -34 11 18 11 59 0 59 -5 0 -12 -11 -15
-25z"/>
<path d="M1360 2394 c-6 -14 -10 -33 -10 -43 0 -10 -3 -21 -7 -25 -10 -9 -10
-106 0 -106 4 0 7 9 7 21 0 11 4 18 8 15 14 -8 32 35 34 84 2 34 0 44 -11 42
-9 -2 -12 4 -8 18 7 29 -2 25 -13 -6z"/>
<path d="M1331 2184 c0 -11 3 -14 6 -6 3 7 2 16 -1 19 -3 4 -6 -2 -5 -13z"/>
<path d="M1299 2093 c-2 -63 -4 -68 -26 -71 -13 -2 -24 -8 -24 -13 -1 -5 -2
-13 -3 -18 -1 -8 30 -53 67 -95 l18 -21 -7 25 c-5 14 -8 36 -8 50 0 14 -4 28
-9 31 -5 4 -6 13 -1 20 4 8 9 22 9 32 1 10 6 22 11 25 5 4 10 19 11 35 1 21
-3 27 -18 27 -14 0 -19 -7 -20 -27z"/>
<path d="M851 1896 c-9 -10 -28 -16 -55 -15 -22 1 -81 -8 -131 -20 -49 -12
-124 -28 -165 -36 -41 -9 -104 -24 -140 -35 -36 -10 -95 -24 -131 -30 -37 -5
-91 -21 -120 -33 -30 -13 -66 -29 -81 -35 l-28 -12 0 -840 0 -840 954 0 953 0
-14 53 c-7 28 -14 90 -16 137 l-2 85 47 0 c65 0 76 14 48 60 -25 40 -18 55 28
55 15 0 22 6 22 20 0 25 25 36 45 20 26 -22 16 5 -29 76 -24 38 -49 87 -55
109 -6 22 -29 63 -51 90 -143 179 -286 396 -348 529 -41 87 -325 504 -352 516
-69 31 -110 54 -110 61 0 5 -5 9 -10 9 -6 0 -27 15 -46 33 -48 43 -49 44 -130
52 -58 5 -73 4 -83 -9z"/>
<path d="M4324 1559 c-3 -6 -1 -16 5 -22 8 -8 11 -5 11 11 0 24 -5 28 -16 11z"/>
<path d="M4312 1210 c0 -14 2 -19 5 -12 2 6 2 18 0 25 -3 6 -5 1 -5 -13z"/>
<path d="M3303 1053 c-19 -7 -16 -40 7 -63 11 -11 34 -39 51 -62 l32 -43 -6
39 c-7 44 -47 129 -62 132 -5 1 -16 0 -22 -3z"/>
<path d="M4293 983 c6 -37 24 -73 37 -73 6 0 10 20 10 45 0 25 -4 45 -9 45 -5
0 -17 3 -26 6 -14 6 -16 2 -12 -23z"/>
<path d="M3207 844 l-37 -34 21 -30 c19 -25 25 -28 43 -18 12 7 37 14 56 18
44 7 45 27 5 55 -17 11 -31 24 -32 30 -3 19 -19 14 -56 -21z"/>
<path d="M3391 859 c-1 -15 -12 -47 -26 -70 -31 -54 -31 -64 -1 -103 12 -17
26 -52 30 -78 7 -45 6 -47 -35 -85 -78 -70 -80 -73 -74 -94 4 -11 2 -26 -4
-33 -8 -9 -8 -29 -1 -64 14 -74 -5 -107 -36 -65 -12 17 -14 17 -44 -5 -17 -13
-33 -22 -34 -20 -1 1 -8 26 -14 53 -19 72 -33 84 -65 50 -14 -15 -29 -37 -35
-49 -27 -60 -125 -254 -139 -274 l-15 -22 396 0 c218 0 396 3 396 7 0 6 -17
98 -51 270 -11 57 -29 128 -40 160 -10 31 -23 83 -29 115 -10 62 -64 169 -131
256 -20 26 -38 54 -42 62 -3 9 -6 4 -6 -11z"/>
<path d="M3080 689 c0 -11 -4 -18 -9 -14 -5 3 -12 1 -16 -5 -4 -6 -10 -8 -15
-5 -11 7 -60 -52 -60 -72 0 -8 6 -13 13 -10 92 37 96 40 107 73 11 33 7 54
-11 54 -5 0 -9 -9 -9 -21z"/>
<path d="M3263 538 c2 -7 16 -13 32 -13 16 0 30 6 33 13 2 8 -8 12 -33 12 -25
0 -35 -4 -32 -12z"/>
<path d="M2050 379 c0 -4 -7 -15 -16 -23 -12 -13 -12 -16 -2 -16 8 0 19 5 26
12 9 9 13 7 18 -5 9 -25 22 -21 22 7 0 17 -7 25 -24 29 -13 2 -24 1 -24 -4z"/>
<path d="M2100 290 c0 -12 -6 -20 -12 -19 -31 4 -48 -2 -48 -16 0 -11 12 -15
46 -15 38 0 45 3 40 16 -3 9 -6 24 -6 35 0 10 -4 19 -10 19 -5 0 -10 -9 -10
-20z"/>
<path d="M2093 183 c9 -2 25 -2 35 0 9 3 1 5 -18 5 -19 0 -27 -2 -17 -5z"/>
<path d="M1975 88 c6 -65 13 -88 27 -88 7 0 8 15 4 37 -3 21 -6 48 -6 61 0 13
-4 21 -9 17 -5 -3 -12 3 -15 12 -3 10 -3 -7 -1 -39z"/>
</g>
</svg>
